<svg width="32" height="32" fill="none" xmlns="http://www.w3.org/2000/svg"><path fill-rule="evenodd" clip-rule="evenodd" d="M8.878 2.667c1.489.02 2.55 1.136 3.893 2.548.332.348.69.728 1.092 1.128 1.945 1.946 1.392 3.534.945 4.81-.485 1.39-.905 2.59 1.61 5.104 2.514 2.515 3.713 2.095 5.102 1.606 1.276-.446 2.86-1.003 4.81.944.396.396.769.75 1.116 1.08 1.417 1.35 2.537 2.414 2.556 3.908.014 1.272-.76 2.57-2.668 4.48l-.846-.574.716.698c-.422.433-1.547 1.588-3.748 1.601h-.04c-3.323 0-7.655-2.645-12.876-7.865-5.242-5.242-7.892-9.587-7.872-12.916.012-2.2 1.166-3.327 1.599-3.75l.037-.04.09-.09c1.913-1.914 3.228-2.7 4.484-2.672zm-.026 2h-.01c-.6 0-1.509.6-2.777 1.832l-.254.25h.003l-.06.062-.088.09c-.323.312-.991.964-.998 2.328-.01 1.908 1.244 5.451 7.285 11.491 6.012 6.01 9.55 7.28 11.463 7.28h.028c1.364-.008 2.015-.676 2.328-.997.095-.098.172-.17.227-.215 1.33-1.337 2.01-2.33 2.003-2.97-.008-.65-.818-1.418-1.936-2.483a58.496 58.496 0 01-1.151-1.115c-1.059-1.055-1.58-.875-2.733-.47-1.594.56-3.776 1.325-7.178-2.08-3.402-3.4-2.64-5.583-2.084-7.178.403-1.152.587-1.676-.47-2.735-.414-.413-.786-.805-1.128-1.165-1.06-1.112-1.823-1.916-2.47-1.925zM20.33 7.41a6.87 6.87 0 015.457 5.456 1 1 0 11-1.963.384 4.88 4.88 0 00-3.876-3.877.999.999 0 11.382-1.963zm-.08-4.736a11.561 11.561 0 0110.27 10.258 1 1 0 01-1.988.224A9.575 9.575 0 0020.03 4.66a1 1 0 01-.883-1.104.99.99 0 011.104-.883z" fill="#fff"/></svg>