<svg width="64" height="60" fill="none" xmlns="http://www.w3.org/2000/svg"><mask id="a" style="mask-type:luminance" maskUnits="userSpaceOnUse" x="0" y="0" width="64" height="60"><path d="M0 0h63.548v60H0V0z" fill="#fff"/></mask><g mask="url(#a)"><path d="M57.602 40.828h.02a.267.267 0 00.029-.024.22.22 0 00.032-.028.223.223 0 00.04-.046l.023-.032a.469.469 0 00.053-.192V12.115a.373.373 0 00-.065-.208.375.375 0 00-.166-.14L32.24.235a.378.378 0 00-.133-.145.354.354 0 00-.303-.046.365.365 0 00-.254.017.389.389 0 00-.186.174L6.034 11.768a.377.377 0 00-.168.14.373.373 0 00-.064.207v28.381c0 .034.005.067.015.1 0 .012 0 .019.011.03.012.012.016.041.028.063l.023.032a.381.381 0 00.04.046l.032.028a.42.42 0 00.027.023H6l.02.014 25.517 12.341a.356.356 0 00.166.038.37.37 0 00.165-.038l25.717-12.34.018-.005zm-8.218 3.1l-7.903-3.765 6.837-3.26a.166.166 0 00.086-.089l8.11 3.692-7.13 3.422zm-9.207 4.42l-7.932-3.78 8.803-4.194 7.903 3.767-8.774 4.207zm-25.55-4.193l7.936-3.781 8.803 4.193-8 3.81-8.739-4.222zm-7.543-3.647l8.109-3.694a.16.16 0 00.085.088l6.837 3.261-7.928 3.779-7.103-3.434zm17.51-7.973l6.763 3.224-8.804 4.194-6.955-3.321 8.996-4.097zm.464-.206l6.753-3.072 6.751 3.072-6.753 3.219-6.751-3.219zm13.959.206l8.998 4.097-6.967 3.32-8.803-4.193 6.772-3.224zm-16.012 7.628l8.803-4.194 8.804 4.194-8.804 4.191-8.803-4.19zm34.03-19.135l-.408-.186a.202.202 0 00-.146-.005.2.2 0 00-.106.1.188.188 0 00-.005.146.182.182 0 00.099.106l.565.258v9.852l-.407-.185a.185.185 0 00-.146-.005.196.196 0 00-.106.1.188.188 0 00-.005.146.185.185 0 00.099.106l.565.258v8.184l-24.75-11.267v-8.185l.206.095a.185.185 0 00.147.006.187.187 0 00.113-.245.187.187 0 00-.1-.108l-.367-.167V10.18l.207.095a.185.185 0 00.147.005.189.189 0 00.11-.246.187.187 0 00-.097-.107l-.367-.173v-8.66L57.034 12.36v8.667zM31.518 1.003v8.568l-.765.349a.19.19 0 00-.09.089.19.19 0 00.05.234.187.187 0 00.12.043.199.199 0 00.078-.018l.607-.278v9.862l-.765.351a.186.186 0 00-.1.107.187.187 0 00.005.145.18.18 0 00.174.112.187.187 0 00.08-.019l.606-.277v8.185L6.567 39.9v-8.18l.565-.26a.181.181 0 00.099-.108.184.184 0 00-.006-.146.18.18 0 00-.107-.1.18.18 0 00-.145.007l-.406.185v-9.85l.565-.26a.181.181 0 00.099-.108.183.183 0 00-.006-.146.184.184 0 00-.107-.1.183.183 0 00-.145.007l-.406.185v-8.664L31.519 1.003zm.183 51.404l-7.904-3.823 8.001-3.813 7.935 3.78-8.032 3.856zM23.343 13.54a.181.181 0 01-.006-.145.18.18 0 01.099-.107l1.83-.838a.183.183 0 01.138.005c.045.02.078.052.098.096.021.045.024.09.01.138a.185.185 0 01-.086.108l-1.83.838a.196.196 0 01-.079.016.176.176 0 01-.174-.11zm3.659-1.676a.183.183 0 01-.006-.146.181.181 0 01.098-.108l1.83-.84a.185.185 0 01.138.007.188.188 0 01.099.095c.02.046.023.09.009.138a.188.188 0 01-.086.108l-1.83.839a.197.197 0 01-.08.018.177.177 0 01-.172-.111zM8.698 20.255a.188.188 0 01.048-.215.193.193 0 01.069-.038l1.827-.84a.194.194 0 01.225.02.19.19 0 01.065.143.188.188 0 01-.13.184l-1.83.838a.187.187 0 01-.08.019.19.19 0 01-.109-.028.19.19 0 01-.076-.083h-.009zm3.668-1.68a.188.188 0 01.095-.254l1.828-.84a.194.194 0 01.225.02c.02.018.036.04.048.064a.193.193 0 01.017.079.185.185 0 01-.062.143.19.19 0 01-.068.04l-1.828.84a.185.185 0 01-.081.017.179.179 0 01-.174-.109zm3.658-1.678a.182.182 0 01-.004-.146.185.185 0 01.1-.107l1.83-.84a.185.185 0 01.145-.005.188.188 0 01.112.246.187.187 0 01-.1.107l-1.828.84a.19.19 0 01-.146.003.19.19 0 01-.109-.098zm3.66-1.68a.181.181 0 01-.005-.145.183.183 0 01.099-.106l1.83-.838a.19.19 0 01.221.302.18.18 0 01-.064.043l-1.83.838a.198.198 0 01-.18-.013.182.182 0 01-.07-.08zm25.623.682a.185.185 0 01.108-.1.189.189 0 01.147.005l1.853.84a.19.19 0 01.098.108.186.186 0 01-.075.227.2.2 0 01-.183.013l-1.853-.84a.189.189 0 01-.1-.107.185.185 0 01.005-.146zm7.378 3.36a.191.191 0 01.253-.095l1.854.838a.192.192 0 01-.079.366.19.19 0 01-.08-.02l-1.852-.837a.186.186 0 01-.1-.107.18.18 0 01-.012-.073c0-.025.006-.05.017-.072zM41.618 14.22a.184.184 0 01.107-.1.185.185 0 01.145.005l1.855.84c.047.022.08.058.098.107a.185.185 0 01-.006.146.188.188 0 01-.174.111.19.19 0 01-.076-.018l-1.854-.84a.185.185 0 01-.098-.107.184.184 0 01.003-.144zm7.38 3.358a.184.184 0 01.107-.1.182.182 0 01.145.007l1.853.838a.19.19 0 01.04.322.187.187 0 01-.118.044.177.177 0 01-.08-.019l-1.853-.838a.185.185 0 01-.1-.107.185.185 0 01.005-.147zm-14.756-6.716a.188.188 0 01.042-.061.188.188 0 01.064-.039.185.185 0 01.146.005l1.853.84a.187.187 0 01.106.214.186.186 0 01-.066.107.185.185 0 01-.119.044.183.183 0 01-.078-.019l-1.854-.838a.203.203 0 01-.06-.043.185.185 0 01-.04-.063.185.185 0 01.006-.147zm3.688 1.67a.186.186 0 01.107-.1.187.187 0 01.145.005l1.853.841a.178.178 0 01.101.106.185.185 0 01-.006.146.183.183 0 01-.106.099.182.182 0 01-.146-.004l-1.853-.84a.195.195 0 01-.113-.18.183.183 0 01.018-.073zM23.334 23.804a.186.186 0 01-.006-.147.183.183 0 01.099-.108l1.837-.829a.19.19 0 01.236.102.19.19 0 01.01.137.185.185 0 01-.087.109l-1.83.838a.193.193 0 01-.078.018.18.18 0 01-.172-.11l-.009-.01zm-3.65 1.695a.182.182 0 01-.005-.146.187.187 0 01.099-.107l1.83-.838a.185.185 0 01.145-.005.18.18 0 01.107.098.182.182 0 01.006.145.183.183 0 01-.098.107l-1.833.832a.2.2 0 01-.078.016.172.172 0 01-.172-.102zm-3.66 1.679a.182.182 0 01-.004-.146.183.183 0 01.1-.106l1.83-.842a.188.188 0 01.145-.003.187.187 0 01.124.171.187.187 0 01-.051.137.202.202 0 01-.06.043l-1.829.84a.194.194 0 01-.146.005.19.19 0 01-.109-.1zm-3.658 1.678a.195.195 0 01-.005-.145.186.186 0 01.1-.107l1.828-.84a.188.188 0 01.156-.018.19.19 0 01.135.18.189.189 0 01-.062.144.2.2 0 01-.069.04l-1.828.841a.19.19 0 01-.255-.104v.01zm-3.659 1.679a.182.182 0 01-.005-.146.183.183 0 01.1-.106l1.828-.848a.19.19 0 01.225.02.18.18 0 01.048.066.17.17 0 01.018.077.186.186 0 01-.061.144.186.186 0 01-.07.04l-1.83.839a.175.175 0 01-.079.018.179.179 0 01-.174-.113v.009zm18.304-8.391a.185.185 0 01-.006-.147.185.185 0 01.099-.108l1.83-.838a.185.185 0 01.137.005c.046.02.079.051.099.097a.19.19 0 01.01.137.18.18 0 01-.087.108l-1.83.839a.195.195 0 01-.19-.014.184.184 0 01-.071-.088l.009.009zm21.995 5.714a.183.183 0 01.108-.098.182.182 0 01.145.006l1.854.838c.04.02.07.049.09.088a.192.192 0 01-.17.278.179.179 0 01-.078-.019l-1.854-.838a.193.193 0 01-.104-.264l.01.009zM37.93 22.813a.186.186 0 01.107-.1.198.198 0 01.145.005l1.853.84a.193.193 0 01.1.107.185.185 0 01-.005.146.183.183 0 01-.106.099.188.188 0 01-.146-.004l-1.853-.841a.182.182 0 01-.1-.106.185.185 0 01.005-.146zm3.688 1.678a.185.185 0 01.107-.098.185.185 0 01.145.003l1.855.84c.047.023.08.06.098.108a.185.185 0 01-.006.146.186.186 0 01-.07.081.2.2 0 01-.182.014l-1.854-.84a.188.188 0 01-.098-.108.188.188 0 01.005-.146zm-7.376-3.357a.187.187 0 01.252-.095l1.853.84a.2.2 0 01.061.044.187.187 0 01.034.21.18.18 0 01-.174.11.184.184 0 01-.078-.016l-1.854-.84a.186.186 0 01-.1-.107.186.186 0 01.005-.146zm11.065 5.036a.186.186 0 01.108-.099.189.189 0 01.147.004l1.853.84a.19.19 0 01.098.108.188.188 0 01-.18.256.198.198 0 01-.078-.016l-1.853-.84a.19.19 0 01-.1-.107.185.185 0 01.005-.146zm9.57 4.358a.18.18 0 01-.173.111.158.158 0 01-.08-.018l-1.853-.838a.185.185 0 01-.1-.107.185.185 0 01.005-.145.188.188 0 01.107-.1.184.184 0 01.146.005l1.853.838a.182.182 0 01.1.107.186.186 0 01-.005.147zm8.66 14.087c0 3.441-2.97 6.702-8.358 9.179-5.202 2.39-12.28 3.9-19.946 4.247h-.026a.578.578 0 01-.407-.159.582.582 0 01-.138-.62.569.569 0 01.52-.365c15.256-.694 27.21-6.087 27.21-12.273 0-1.935-1.188-3.882-3.432-5.626a.572.572 0 11.694-.905c2.543 1.961 3.883 4.218 3.883 6.522zM30.245 57.517a.566.566 0 01-.306.475l-3.681 1.924a.563.563 0 01-.435.046.57.57 0 01-.108-1.05l1.733-.906C11.725 57.103.011 51.433.011 44.616c0-2.455 1.51-4.84 4.37-6.9a.562.562 0 01.433-.12.562.562 0 01.48.44.567.567 0 01-.244.606c-2.547 1.838-3.88 3.903-3.88 5.973 0 6.136 11.583 11.448 26.57 12.25l-1.763-1.2a.574.574 0 01-.239-.59.564.564 0 01.247-.362.567.567 0 01.637.005l3.373 2.292a.568.568 0 01.25.507z" fill="url(#paint0_linear_9_186)"/></g><defs><linearGradient id="paint0_linear_9_186" x1=".011" y1="30.006" x2="63.537" y2="30.006" gradientUnits="userSpaceOnUse"><stop stop-color="#0CBAF1"/><stop offset="1" stop-color="#E95CE9"/></linearGradient></defs></svg>