<svg width="33" height="32" fill="none" xmlns="http://www.w3.org/2000/svg"><path fill-rule="evenodd" clip-rule="evenodd" d="M16.832 2.667c6.065 0 11 4.972 11 11.084 0 7.513-8.608 14.916-11 14.916-2.392 0-11-7.403-11-14.916 0-6.112 4.935-11.084 11-11.084zm0 2c-4.963 0-9 4.076-9 9.084 0 6.372 7.499 12.58 9 12.91 1.501-.331 9-6.54 9-12.91 0-5.008-4.037-9.084-9-9.084zm.001 4.667a4.339 4.339 0 014.334 4.334A4.337 4.337 0 0116.833 18a4.337 4.337 0 01-4.333-4.332 4.339 4.339 0 014.333-4.334zm0 2a2.336 2.336 0 00-2.333 2.334A2.335 2.335 0 0016.833 16a2.335 2.335 0 002.334-2.332 2.336 2.336 0 00-2.334-2.334z" fill="#fff"/></svg>